<svg id="svg" version="1.1" xmlns="http://www.w3.org/2000/svg" xmlns:xlink="http://www.w3.org/1999/xlink" width="400" height="400" viewBox="0, 0, 400,400"><g id="svgg"><path id="path0" d="M35.200 200.200 C 35.200 201.067,35.013 201.207,33.800 201.250 C 31.565 201.330,31.403 201.373,31.350 201.900 C 31.323 202.175,31.277 202.580,31.250 202.800 C 31.223 203.020,30.805 203.200,30.322 203.200 C 29.149 203.200,27.200 205.119,27.200 206.275 C 27.200 206.995,26.978 207.200,26.200 207.200 C 25.446 207.200,25.200 207.410,25.200 208.054 C 25.200 208.524,24.750 209.325,24.200 209.835 C 23.549 210.439,23.200 211.193,23.200 211.999 C 23.200 212.786,22.836 213.601,22.200 214.236 C 19.531 216.905,24.144 216.096,29.600 212.937 C 32.130 211.473,34.740 209.985,35.400 209.631 C 36.060 209.277,37.045 208.675,37.589 208.293 C 39.926 206.655,46.763 209.335,46.790 211.900 C 46.798 212.631,47.025 212.800,48.000 212.800 C 49.013 212.800,49.200 212.956,49.200 213.800 C 49.200 214.554,49.410 214.800,50.054 214.800 C 50.524 214.800,51.289 215.205,51.754 215.700 C 52.219 216.195,53.140 216.654,53.800 216.720 C 55.918 216.932,56.371 217.037,56.688 217.386 C 56.860 217.574,56.775 217.599,56.500 217.441 C 56.225 217.282,56.000 217.324,56.000 217.534 C 56.000 218.093,57.059 218.405,57.112 217.862 C 57.817 210.591,57.637 209.560,55.498 208.667 C 54.767 208.361,53.905 207.861,53.584 207.556 C 53.263 207.250,52.294 206.640,51.432 206.200 C 50.569 205.760,49.129 204.990,48.232 204.490 C 47.334 203.989,45.700 203.089,44.600 202.490 C 43.050 201.645,42.572 201.153,42.473 200.300 L 42.347 199.200 38.773 199.200 C 35.228 199.200,35.200 199.208,35.200 200.200 M64.800 216.769 L 64.800 226.339 63.764 227.569 C 63.195 228.246,62.463 228.800,62.138 228.800 C 61.813 228.800,60.960 229.247,60.243 229.794 C 59.298 230.515,58.178 230.872,56.170 231.094 C 53.712 231.366,53.386 231.501,53.272 232.300 C 53.172 233.003,52.884 233.200,51.953 233.200 C 51.196 233.200,50.424 233.565,49.835 234.200 C 49.325 234.750,48.524 235.200,48.054 235.200 C 46.928 235.200,46.890 236.814,48.000 237.507 C 48.440 237.782,48.810 238.230,48.821 238.503 C 48.833 238.777,49.868 239.489,51.121 240.086 L 53.400 241.172 55.155 240.324 C 57.005 239.429,60.888 237.152,61.713 236.478 C 63.481 235.033,69.161 232.613,70.800 232.607 L 72.600 232.600 72.676 224.412 C 72.752 216.190,72.561 214.899,71.336 215.369 C 70.964 215.512,70.800 215.220,70.800 214.415 C 70.800 213.517,70.597 213.227,69.900 213.128 C 69.132 213.019,68.982 212.721,68.878 211.100 C 68.770 209.410,68.653 209.200,67.821 209.200 C 67.158 209.200,66.814 208.910,66.636 208.200 C 66.474 207.554,66.104 207.200,65.592 207.200 C 64.825 207.200,64.800 207.497,64.800 216.769 M33.500 219.076 C 33.115 219.176,32.800 219.412,32.800 219.598 C 32.800 219.785,32.170 220.146,31.400 220.400 C 30.630 220.654,30.000 221.096,30.000 221.382 C 30.000 221.668,29.730 222.126,29.400 222.400 C 28.902 222.813,28.800 224.305,28.800 231.174 C 28.800 238.896,28.747 239.507,28.000 240.308 C 26.910 241.477,26.958 242.710,28.100 242.872 C 28.678 242.954,29.046 243.322,29.128 243.900 C 29.211 244.486,29.531 244.800,30.045 244.800 C 30.478 244.800,31.231 245.186,31.717 245.659 C 32.203 246.131,32.347 246.373,32.038 246.197 C 31.662 245.982,31.571 246.029,31.762 246.338 C 31.919 246.592,32.757 246.800,33.624 246.800 C 35.141 246.800,35.463 247.136,35.247 248.500 C 35.221 248.665,38.440 248.800,42.400 248.800 L 49.600 248.800 49.600 247.861 C 49.600 247.159,49.221 246.756,48.100 246.265 C 47.275 245.904,45.790 245.076,44.800 244.426 C 43.810 243.775,42.280 242.864,41.400 242.401 C 35.545 239.323,35.387 239.143,35.447 235.599 C 35.478 233.771,35.718 232.480,36.147 231.825 C 36.678 231.015,36.800 229.703,36.800 224.814 L 36.800 218.800 35.500 218.846 C 34.785 218.872,33.885 218.975,33.500 219.076 " stroke="none" fill="#d35442" fill-rule="evenodd"></path><path id="path1" d="M44.277 199.637 C 44.530 199.890,44.642 200.346,44.526 200.649 C 44.384 201.019,44.623 201.204,45.257 201.213 C 46.309 201.227,47.600 202.057,47.600 202.720 C 47.600 202.957,48.275 203.208,49.100 203.276 C 50.305 203.376,50.625 203.577,50.728 204.300 C 50.831 205.029,51.110 205.200,52.199 205.200 C 53.477 205.200,54.800 206.028,54.800 206.829 C 54.800 207.033,55.259 207.200,55.819 207.200 C 58.473 207.200,60.557 216.247,58.055 216.902 C 57.373 217.080,57.303 217.621,57.233 223.298 L 57.156 229.499 59.003 229.076 C 60.050 228.837,61.019 228.339,61.239 227.927 C 61.453 227.527,61.982 227.200,62.414 227.200 C 63.171 227.200,63.200 226.881,63.200 218.412 C 63.200 210.292,63.262 209.513,64.021 208.163 C 64.570 207.185,64.801 206.156,64.721 205.051 L 64.600 203.400 62.700 203.400 C 60.894 203.400,60.800 203.346,60.800 202.300 C 60.800 201.407,60.612 201.191,59.800 201.150 C 58.192 201.070,58.066 201.029,57.520 200.419 C 57.083 199.932,57.099 199.900,57.619 200.219 C 57.975 200.438,57.930 200.316,57.514 199.932 C 56.611 199.098,43.445 198.805,44.277 199.637 M37.637 209.842 C 37.107 210.369,36.252 210.800,35.737 210.800 C 35.221 210.800,34.800 211.005,34.800 211.256 C 34.800 212.015,33.476 212.774,32.128 212.787 C 31.118 212.797,30.829 212.985,30.728 213.700 C 30.640 214.320,30.289 214.635,29.600 214.712 C 27.491 214.948,26.888 215.219,26.678 216.025 C 26.481 216.777,26.213 216.846,23.930 216.729 L 21.400 216.600 21.333 225.199 C 21.265 233.970,21.466 235.341,22.676 234.337 C 22.989 234.077,23.214 234.030,23.175 234.232 C 22.824 236.076,23.222 236.896,24.356 236.669 L 25.513 236.437 25.319 238.619 C 25.129 240.750,25.148 240.800,26.162 240.800 L 27.200 240.800 27.200 231.464 L 27.200 222.129 28.300 220.679 C 28.978 219.785,29.745 219.224,30.300 219.215 C 30.795 219.207,31.200 218.959,31.200 218.664 C 31.200 217.921,32.651 217.362,34.900 217.242 C 36.608 217.150,36.800 217.226,36.800 217.998 C 36.800 219.221,38.550 218.951,38.728 217.700 C 38.813 217.098,39.130 216.800,39.682 216.800 C 40.136 216.800,40.925 216.350,41.435 215.800 C 42.015 215.174,42.798 214.800,43.529 214.800 C 44.566 214.800,44.723 214.634,44.943 213.300 C 45.326 210.981,45.271 210.800,44.181 210.800 C 43.608 210.800,42.756 210.362,42.235 209.800 C 41.020 208.489,38.978 208.508,37.637 209.842 M36.800 234.330 C 36.800 237.769,37.487 238.980,39.600 239.265 C 40.280 239.357,40.641 239.688,40.728 240.300 C 40.828 241.005,41.116 241.200,42.054 241.200 C 43.517 241.200,44.800 241.839,44.800 242.569 C 44.800 242.903,45.488 243.212,46.600 243.379 C 48.022 243.592,48.400 243.812,48.400 244.425 C 48.400 245.014,48.679 245.200,49.566 245.200 C 50.208 245.200,51.185 245.603,51.739 246.097 L 52.746 246.994 51.933 248.308 C 50.510 250.610,54.269 251.837,56.041 249.649 C 56.421 249.179,57.191 248.800,57.764 248.800 C 58.602 248.800,58.800 248.609,58.800 247.800 C 58.800 247.250,59.025 246.783,59.300 246.762 C 59.575 246.742,60.413 246.697,61.162 246.662 C 62.151 246.617,62.554 246.398,62.632 245.863 C 62.777 244.876,62.818 244.851,64.442 244.741 C 65.687 244.658,66.833 244.012,66.808 243.408 C 66.714 241.077,66.819 240.800,67.800 240.800 C 68.733 240.800,68.800 240.667,68.800 238.800 C 68.800 236.933,68.867 236.800,69.800 236.800 C 70.735 236.800,70.800 236.669,70.800 234.771 C 70.800 232.927,70.743 232.800,70.171 233.371 C 69.826 233.717,69.331 234.003,69.071 234.006 C 68.795 234.010,68.848 234.173,69.200 234.400 C 69.653 234.693,69.472 234.789,68.458 234.794 C 67.616 234.798,66.672 235.173,65.927 235.800 C 65.273 236.350,64.322 236.800,63.813 236.800 C 63.159 236.800,62.813 237.094,62.636 237.800 C 62.415 238.681,62.171 238.800,60.592 238.800 C 58.947 238.800,58.800 238.882,58.800 239.800 C 58.800 240.607,58.602 240.800,57.771 240.800 C 57.206 240.800,56.492 241.025,56.185 241.300 C 54.708 242.625,54.334 242.800,52.979 242.800 C 51.864 242.800,51.477 242.614,51.317 242.004 C 51.203 241.567,50.950 241.308,50.755 241.428 C 50.560 241.549,50.400 241.457,50.400 241.224 C 50.400 240.991,49.782 240.800,49.027 240.800 C 47.501 240.800,47.417 240.656,46.991 237.300 C 46.761 235.482,46.607 235.200,45.842 235.200 C 45.357 235.200,44.718 234.975,44.421 234.700 C 43.983 234.293,43.945 234.312,44.218 234.800 C 44.507 235.316,44.459 235.324,43.881 234.855 C 43.511 234.555,43.325 234.122,43.466 233.893 C 43.616 233.651,43.530 233.596,43.262 233.762 C 43.008 233.919,42.800 233.857,42.800 233.624 C 42.800 233.391,42.370 233.200,41.843 233.200 C 41.138 233.200,40.816 232.917,40.616 232.121 C 40.403 231.275,40.266 231.167,39.979 231.621 C 39.726 232.020,39.610 232.044,39.606 231.700 C 39.602 231.396,39.050 231.200,38.200 231.200 L 36.800 231.200 36.800 234.330 " stroke="none" fill="#6cbcc4" fill-rule="evenodd"></path><path id="path2" d="M131.297 224.900 L 131.400 250.600 135.100 250.715 L 138.800 250.830 138.800 249.815 C 138.800 248.954,138.982 248.800,140.000 248.800 C 141.013 248.800,141.200 248.956,141.200 249.800 C 141.200 250.796,141.213 250.800,145.000 250.800 C 148.787 250.800,148.800 250.796,148.800 249.800 C 148.800 248.909,148.965 248.800,150.320 248.800 C 152.213 248.800,152.800 248.236,152.800 246.415 C 152.800 245.321,153.009 244.898,153.700 244.595 L 154.600 244.200 154.712 230.800 C 154.832 216.309,154.794 215.779,153.599 215.400 C 152.980 215.203,152.800 214.794,152.800 213.587 C 152.800 211.829,152.069 211.200,150.026 211.200 C 148.980 211.200,148.800 211.051,148.800 210.185 L 148.800 209.170 145.117 209.285 C 141.572 209.396,141.424 209.437,141.157 210.400 C 141.005 210.950,140.862 208.655,140.840 205.300 L 140.800 199.200 135.997 199.200 L 131.194 199.200 131.297 224.900 M157.200 224.371 C 157.200 253.869,156.570 250.800,162.629 250.800 L 166.800 250.800 166.800 225.000 L 166.800 199.200 162.000 199.200 L 157.200 199.200 157.200 224.371 M57.444 199.928 C 57.315 200.138,57.462 200.520,57.772 200.777 C 58.217 201.146,58.317 201.116,58.246 200.634 C 58.125 199.808,57.732 199.462,57.444 199.928 M80.000 202.000 C 79.337 202.663,79.200 203.333,79.200 205.911 C 79.200 210.437,79.543 210.800,83.823 210.800 L 87.200 210.800 87.200 230.171 C 87.200 253.019,86.616 250.800,92.629 250.800 L 96.800 250.800 96.800 249.800 C 96.800 249.000,97.000 248.800,97.800 248.800 L 98.800 248.800 98.800 229.800 L 98.800 210.800 101.800 210.800 L 104.800 210.800 104.800 206.000 L 104.800 201.200 92.800 201.200 C 81.333 201.200,80.764 201.236,80.000 202.000 M259.200 202.200 C 259.200 203.091,259.035 203.200,257.680 203.200 C 256.844 203.200,255.944 203.416,255.680 203.680 C 255.416 203.944,255.200 204.844,255.200 205.680 C 255.200 207.035,255.091 207.200,254.200 207.200 L 253.200 207.200 253.200 213.000 L 253.200 218.800 254.200 218.800 C 255.133 218.800,255.200 218.933,255.200 220.800 C 255.200 222.667,255.267 222.800,256.200 222.800 C 256.985 222.800,257.200 223.004,257.200 223.745 C 257.200 224.265,257.632 225.123,258.160 225.651 C 258.688 226.179,259.183 227.058,259.260 227.605 C 259.355 228.278,259.692 228.641,260.300 228.728 C 260.951 228.820,261.200 229.124,261.200 229.828 C 261.200 230.598,261.408 230.800,262.200 230.800 C 263.000 230.800,263.200 231.000,263.200 231.800 C 263.200 232.600,263.400 232.800,264.200 232.800 C 265.000 232.800,265.200 233.000,265.200 233.800 C 265.200 234.600,265.400 234.800,266.200 234.800 C 267.183 234.800,267.200 234.853,267.200 238.000 L 267.200 241.200 265.243 241.200 L 263.286 241.200 263.137 236.700 C 262.946 230.939,263.171 231.200,258.405 231.200 C 253.011 231.200,253.200 230.931,253.200 238.629 L 253.200 244.800 254.200 244.800 C 255.091 244.800,255.200 244.965,255.200 246.320 C 255.200 248.213,255.764 248.800,257.585 248.800 C 258.679 248.800,259.102 249.009,259.405 249.700 C 260.030 251.125,270.671 251.321,270.871 249.911 C 270.982 249.130,271.271 248.983,272.898 248.878 C 274.530 248.773,274.830 248.619,275.041 247.778 C 275.187 247.198,275.577 246.800,276.001 246.800 C 276.836 246.800,277.200 246.031,277.200 244.264 C 277.200 243.442,277.472 242.822,277.970 242.511 C 278.394 242.247,278.819 241.619,278.916 241.115 C 279.046 240.435,279.105 240.534,279.146 241.500 C 279.192 242.605,279.350 242.800,280.200 242.800 C 281.133 242.800,281.200 242.933,281.200 244.800 C 281.200 246.667,281.267 246.800,282.200 246.800 C 283.000 246.800,283.200 247.000,283.200 247.800 C 283.200 248.600,283.400 248.800,284.200 248.800 C 284.750 248.800,285.200 248.967,285.200 249.171 C 285.200 251.113,294.551 251.730,295.031 249.820 C 295.241 248.981,295.543 248.823,297.138 248.720 C 298.720 248.618,299.019 248.465,299.128 247.700 C 299.209 247.125,299.532 246.800,300.020 246.800 C 301.081 246.800,301.251 245.780,301.116 240.200 L 301.000 235.400 296.658 235.286 C 291.515 235.151,291.212 235.309,291.168 238.149 C 291.151 239.277,291.046 239.975,290.935 239.700 C 290.824 239.425,290.388 239.200,289.967 239.200 C 289.233 239.200,289.200 238.800,289.200 230.000 C 289.200 221.183,289.232 220.800,289.971 220.800 C 290.395 220.800,290.824 220.485,290.924 220.100 C 291.025 219.715,291.128 220.615,291.154 222.100 L 291.200 224.800 296.211 224.800 L 301.222 224.800 301.111 219.100 C 301.003 213.532,300.979 213.397,300.100 213.272 C 299.449 213.180,299.200 212.876,299.200 212.172 C 299.200 211.306,299.027 211.200,297.609 211.200 C 296.354 211.200,295.880 210.989,295.363 210.200 C 294.741 209.251,294.517 209.200,290.954 209.200 C 287.216 209.200,287.200 209.204,287.200 210.200 C 287.200 211.133,287.067 211.200,285.200 211.200 C 283.333 211.200,283.200 211.267,283.200 212.200 C 283.200 213.000,283.000 213.200,282.200 213.200 C 281.267 213.200,281.200 213.333,281.200 215.200 C 281.200 217.067,281.133 217.200,280.200 217.200 L 279.200 217.200 279.189 226.700 C 279.179 235.818,279.151 236.156,278.497 235.100 C 278.122 234.495,277.676 234.000,277.507 234.000 C 277.338 234.000,277.200 233.205,277.200 232.233 C 277.200 229.950,276.892 229.200,275.957 229.200 C 275.471 229.200,275.200 228.919,275.200 228.414 C 275.200 227.981,274.660 227.075,274.000 226.400 C 273.340 225.725,272.800 224.802,272.800 224.349 C 272.800 223.874,272.476 223.440,272.034 223.325 C 271.613 223.215,271.159 222.691,271.026 222.162 C 270.877 221.566,270.494 221.200,270.020 221.200 C 269.532 221.200,269.209 220.875,269.128 220.300 C 269.046 219.722,268.678 219.354,268.100 219.272 C 265.562 218.912,267.787 218.614,272.209 218.723 L 277.220 218.846 277.110 212.123 C 277.002 205.493,276.987 205.398,276.100 205.272 C 275.449 205.180,275.200 204.876,275.200 204.172 C 275.200 203.399,274.993 203.200,274.190 203.200 C 273.481 203.200,273.067 202.902,272.800 202.200 L 272.420 201.200 265.810 201.200 L 259.200 201.200 259.200 202.200 M28.026 204.169 C 27.751 204.500,27.714 204.823,27.935 204.960 C 28.141 205.087,28.518 204.939,28.774 204.631 C 29.049 204.300,29.086 203.977,28.865 203.840 C 28.659 203.713,28.282 203.861,28.026 204.169 M111.467 209.467 C 111.320 209.613,111.200 210.063,111.200 210.467 C 111.200 211.080,110.873 211.200,109.200 211.200 C 107.333 211.200,107.200 211.267,107.200 212.200 C 107.200 213.000,107.000 213.200,106.200 213.200 L 105.200 213.200 105.200 219.000 L 105.200 224.800 109.520 224.800 C 114.658 224.800,114.800 224.707,114.800 221.320 L 114.800 218.800 116.000 218.800 L 117.200 218.800 117.200 222.000 L 117.200 225.200 115.200 225.200 C 113.345 225.200,113.200 225.271,113.200 226.178 C 113.200 227.061,113.015 227.168,111.300 227.278 C 109.679 227.382,109.381 227.532,109.272 228.300 C 109.180 228.951,108.876 229.200,108.172 229.200 C 107.402 229.200,107.200 229.408,107.200 230.200 C 107.200 231.000,107.000 231.200,106.200 231.200 C 105.255 231.200,105.200 231.320,105.200 233.400 C 105.200 235.105,105.063 235.600,104.590 235.600 C 103.706 235.600,103.200 237.284,103.200 240.226 C 103.200 242.705,103.237 242.800,104.200 242.800 C 105.154 242.800,105.200 242.909,105.200 245.171 C 105.200 247.962,105.807 248.800,107.829 248.800 C 109.025 248.800,109.200 248.928,109.200 249.800 C 109.200 250.796,109.213 250.800,113.000 250.800 C 116.787 250.800,116.800 250.796,116.800 249.800 C 116.800 248.396,119.074 248.304,119.272 249.700 C 119.394 250.557,119.571 250.600,123.000 250.600 L 126.600 250.600 126.704 231.900 L 126.808 213.200 125.804 213.200 C 125.000 213.200,124.800 213.001,124.800 212.200 C 124.800 211.267,124.667 211.200,122.800 211.200 C 120.933 211.200,120.800 211.133,120.800 210.200 L 120.800 209.200 116.267 209.200 C 113.773 209.200,111.613 209.320,111.467 209.467 M177.835 210.200 C 177.325 210.750,176.628 211.200,176.285 211.200 C 175.405 211.200,173.200 213.509,173.200 214.431 C 173.200 214.985,172.920 215.200,172.200 215.200 L 171.200 215.200 171.200 230.000 L 171.200 244.800 172.200 244.800 C 173.091 244.800,173.200 244.965,173.200 246.320 C 173.200 248.229,173.764 248.800,175.652 248.800 C 176.895 248.800,177.166 248.950,177.272 249.700 C 177.395 250.567,177.570 250.604,182.100 250.713 L 186.800 250.825 186.800 249.813 C 186.800 248.864,186.927 248.800,188.800 248.800 C 190.667 248.800,190.800 248.733,190.800 247.800 C 190.800 247.000,191.000 246.800,191.800 246.800 L 192.800 246.800 192.800 241.000 L 192.800 235.200 189.000 235.200 L 185.200 235.200 185.200 237.200 C 185.200 239.067,185.133 239.200,184.200 239.200 C 183.400 239.200,183.200 239.400,183.200 240.200 C 183.200 241.044,183.013 241.200,182.000 241.200 L 180.800 241.200 180.800 237.000 L 180.800 232.800 186.800 232.800 L 192.800 232.800 192.800 223.000 L 192.800 213.200 191.800 213.200 C 191.000 213.200,190.800 213.000,190.800 212.200 C 190.800 211.267,190.667 211.200,188.800 211.200 C 186.933 211.200,186.800 211.133,186.800 210.200 L 186.800 209.200 182.781 209.200 C 179.008 209.200,178.705 209.261,177.835 210.200 M205.481 209.452 C 205.326 209.607,205.200 210.063,205.200 210.467 C 205.200 211.433,204.305 211.400,203.400 210.400 C 202.838 209.779,202.168 209.600,200.400 209.600 C 198.632 209.600,197.962 209.779,197.400 210.400 C 197.002 210.840,196.344 211.200,195.938 211.200 C 195.231 211.200,195.200 211.987,195.200 229.769 L 195.200 248.338 196.431 249.569 C 197.637 250.776,197.739 250.800,201.569 250.800 C 207.265 250.800,206.784 252.324,206.880 233.969 C 206.925 225.516,207.022 219.995,207.097 221.700 L 207.234 224.800 211.017 224.800 C 214.786 224.800,214.800 224.796,214.800 223.800 C 214.800 222.997,214.999 222.800,215.813 222.800 L 216.825 222.800 216.713 218.100 C 216.604 213.570,216.567 213.395,215.700 213.272 C 215.049 213.180,214.800 212.876,214.800 212.172 C 214.800 211.409,214.591 211.200,213.828 211.200 C 213.124 211.200,212.820 210.951,212.728 210.300 C 212.598 209.388,206.284 208.650,205.481 209.452 M223.467 209.467 C 223.320 209.613,223.200 210.063,223.200 210.467 C 223.200 211.052,222.886 211.200,221.649 211.200 C 219.831 211.200,219.314 211.694,219.133 213.602 C 219.029 214.698,218.805 215.028,218.100 215.128 C 217.232 215.251,217.200 215.406,217.200 219.428 C 217.200 223.241,217.135 223.600,216.450 223.600 C 214.766 223.600,214.556 233.973,216.200 235.927 C 217.115 237.014,217.200 237.443,217.200 240.958 C 217.200 244.767,217.209 244.800,218.178 244.800 C 219.061 244.800,219.168 244.985,219.278 246.700 L 219.400 248.600 221.300 248.722 C 223.015 248.832,223.200 248.939,223.200 249.822 L 223.200 250.800 228.000 250.800 L 232.800 250.800 232.800 249.822 C 232.800 248.939,232.985 248.832,234.700 248.722 L 236.600 248.600 236.722 246.700 C 236.832 244.985,236.939 244.800,237.822 244.800 C 238.772 244.800,238.800 244.715,238.800 241.800 C 238.800 238.867,238.822 238.800,239.800 238.800 L 240.800 238.800 240.800 230.000 L 240.800 221.200 239.815 221.200 C 238.848 221.200,238.828 221.134,238.715 217.500 C 238.609 214.102,238.527 213.768,237.700 213.405 C 237.148 213.163,236.800 212.660,236.800 212.105 C 236.800 211.286,236.611 211.200,234.800 211.200 C 232.933 211.200,232.800 211.133,232.800 210.200 L 232.800 209.200 228.267 209.200 C 225.773 209.200,223.613 209.320,223.467 209.467 M313.200 210.200 C 313.200 211.509,311.075 211.660,310.400 210.400 C 309.768 209.220,306.322 209.279,304.527 210.500 L 303.205 211.400 303.203 230.326 C 303.199 252.855,302.676 250.800,308.414 250.800 L 312.800 250.800 312.800 234.800 L 312.800 218.800 314.000 218.800 L 315.200 218.800 315.200 221.800 L 315.200 224.800 319.000 224.800 L 322.800 224.800 322.800 218.000 L 322.800 211.200 321.800 211.200 C 321.250 211.200,320.800 211.033,320.800 210.829 C 320.800 209.693,319.459 209.200,316.371 209.200 C 313.255 209.200,313.200 209.217,313.200 210.200 M363.467 209.467 C 363.320 209.613,363.200 210.063,363.200 210.467 C 363.200 211.540,360.387 211.490,359.400 210.400 C 358.838 209.779,358.168 209.600,356.400 209.600 C 354.632 209.600,353.962 209.779,353.400 210.400 C 353.002 210.840,352.344 211.200,351.938 211.200 C 350.714 211.200,350.801 248.185,352.029 249.746 C 353.262 251.313,360.272 251.365,361.818 249.818 L 362.800 248.836 362.800 233.818 L 362.800 218.800 364.000 218.800 L 365.200 218.800 365.200 234.026 C 365.200 252.362,364.714 250.800,370.414 250.800 L 374.800 250.800 374.800 235.828 L 374.800 220.856 375.700 220.728 C 376.278 220.646,376.646 220.278,376.728 219.700 C 376.827 219.001,377.117 218.800,378.023 218.800 L 379.191 218.800 379.295 234.700 L 379.400 250.600 384.000 250.600 L 388.600 250.600 388.704 231.900 L 388.808 213.200 387.804 213.200 C 387.000 213.200,386.800 213.001,386.800 212.200 C 386.800 211.408,386.598 211.200,385.828 211.200 C 385.124 211.200,384.820 210.951,384.728 210.300 C 384.516 208.812,377.896 208.716,376.741 210.184 C 376.170 210.910,375.560 211.200,374.604 211.200 C 373.869 211.200,373.176 211.425,373.065 211.700 C 372.904 212.100,372.857 212.100,372.832 211.700 C 372.814 211.425,372.350 211.200,371.800 211.200 C 371.000 211.200,370.800 211.000,370.800 210.200 C 370.800 209.211,364.366 208.567,363.467 209.467 M325.823 210.489 C 325.282 211.261,325.200 213.685,325.200 228.858 L 325.200 246.338 326.431 247.569 C 327.108 248.246,328.008 248.800,328.431 248.800 C 328.985 248.800,329.200 249.080,329.200 249.800 C 329.200 251.292,336.661 251.390,336.872 249.900 C 337.066 248.537,338.886 248.461,339.750 249.779 C 340.383 250.746,340.605 250.800,343.947 250.800 C 349.262 250.800,348.800 252.756,348.800 230.269 L 348.800 211.200 347.847 211.200 C 347.230 211.200,346.819 210.918,346.684 210.400 C 346.497 209.685,346.138 209.600,343.299 209.600 C 340.632 209.600,340.008 209.728,339.400 210.400 C 339.002 210.840,338.344 211.200,337.938 211.200 C 337.234 211.200,337.200 211.887,337.200 226.200 L 337.200 241.200 336.000 241.200 L 334.800 241.200 334.800 226.275 C 334.800 208.389,335.163 209.600,329.807 209.600 C 326.787 209.600,326.382 209.690,325.823 210.489 M267.200 214.000 C 267.200 217.106,267.172 217.200,266.245 217.200 C 265.417 217.200,265.254 216.956,265.014 215.354 C 264.812 214.010,264.529 213.454,263.969 213.308 C 262.034 212.802,263.017 210.800,265.200 210.800 L 267.200 210.800 267.200 214.000 M22.400 213.557 C 22.400 213.827,22.192 213.919,21.938 213.762 C 21.665 213.593,21.584 213.651,21.741 213.904 C 21.886 214.139,21.779 214.423,21.502 214.534 C 21.189 214.660,21.170 214.749,21.451 214.768 C 22.034 214.809,22.993 213.660,22.657 213.324 C 22.516 213.182,22.400 213.287,22.400 213.557 M55.815 217.175 C 55.661 217.425,55.765 217.572,56.052 217.510 C 56.333 217.449,56.572 217.610,56.582 217.867 C 56.592 218.123,56.721 218.455,56.870 218.603 C 57.018 218.752,57.098 218.585,57.046 218.233 C 56.905 217.275,56.153 216.628,55.815 217.175 M143.200 219.642 C 143.200 220.106,143.650 220.839,144.200 221.271 L 145.200 222.058 145.200 229.759 C 145.200 237.457,145.200 237.461,144.200 238.400 C 143.650 238.917,143.200 239.758,143.200 240.270 C 143.200 241.037,142.989 241.200,142.000 241.200 L 140.800 241.200 140.800 230.000 L 140.800 218.800 142.000 218.800 C 142.953 218.800,143.200 218.973,143.200 219.642 M183.200 222.000 L 183.200 225.200 182.000 225.200 L 180.800 225.200 180.800 222.000 L 180.800 218.800 182.000 218.800 L 183.200 218.800 183.200 222.000 M229.200 230.000 L 229.200 241.200 228.000 241.200 L 226.800 241.200 226.800 230.000 L 226.800 218.800 228.000 218.800 L 229.200 218.800 229.200 230.000 M117.200 237.000 L 117.200 241.200 116.000 241.200 L 114.800 241.200 114.800 238.000 C 114.800 234.853,114.817 234.800,115.800 234.800 C 116.600 234.800,116.800 234.600,116.800 233.800 C 116.800 233.250,116.890 232.800,117.000 232.800 C 117.110 232.800,117.200 234.690,117.200 237.000 M42.806 233.438 C 42.797 234.095,44.283 235.313,44.556 234.871 C 44.685 234.662,44.523 234.268,44.196 233.996 C 43.868 233.724,43.597 233.659,43.594 233.851 C 43.591 234.043,43.413 233.930,43.200 233.600 C 42.987 233.270,42.809 233.197,42.806 233.438 " stroke="none" fill="#5c646c" fill-rule="evenodd"></path><path id="path3" d="M43.204 200.100 C 43.207 200.820,43.938 201.400,46.857 203.000 C 48.864 204.100,51.873 205.750,53.544 206.666 C 58.274 209.259,59.996 213.143,57.804 216.272 C 57.252 217.061,57.267 217.108,58.004 216.915 C 60.551 216.249,58.516 207.200,55.819 207.200 C 55.259 207.200,54.800 207.033,54.800 206.829 C 54.800 206.028,53.477 205.200,52.199 205.200 C 51.110 205.200,50.831 205.029,50.728 204.300 C 50.625 203.577,50.305 203.376,49.100 203.276 C 48.275 203.208,47.600 202.957,47.600 202.720 C 47.600 202.057,46.309 201.227,45.257 201.213 C 44.623 201.204,44.384 201.019,44.526 200.649 C 44.738 200.095,44.117 199.200,43.520 199.200 C 43.344 199.200,43.202 199.605,43.204 200.100 M63.888 208.361 C 63.300 209.525,63.200 210.994,63.200 218.461 C 63.200 226.881,63.171 227.200,62.414 227.200 C 61.982 227.200,61.444 227.544,61.219 227.964 C 60.970 228.431,60.171 228.836,59.167 229.006 C 57.953 229.211,57.640 229.400,57.972 229.732 C 58.303 230.063,58.625 230.052,59.205 229.690 C 59.636 229.420,60.226 229.200,60.516 229.200 C 60.806 229.200,61.709 228.591,62.522 227.846 L 64.000 226.492 64.000 218.706 C 64.000 214.153,64.180 210.404,64.433 209.678 C 65.125 207.692,64.720 206.713,63.888 208.361 M38.901 208.447 C 38.187 208.653,36.984 209.222,36.227 209.711 C 35.469 210.200,34.103 211.050,33.190 211.600 C 31.992 212.321,31.721 212.639,32.217 212.739 C 33.122 212.923,34.800 212.009,34.800 211.332 C 34.800 211.040,35.224 210.800,35.742 210.800 C 36.259 210.800,37.169 210.350,37.762 209.800 C 38.428 209.183,39.313 208.800,40.075 208.800 C 40.877 208.800,41.633 209.150,42.235 209.800 C 42.745 210.350,43.558 210.800,44.043 210.800 C 45.271 210.800,44.012 209.383,42.059 208.567 C 40.538 207.931,40.670 207.936,38.901 208.447 M45.200 211.800 C 45.200 212.350,45.380 212.800,45.600 212.800 C 45.820 212.800,46.000 212.350,46.000 211.800 C 46.000 211.250,45.820 210.800,45.600 210.800 C 45.380 210.800,45.200 211.250,45.200 211.800 M29.241 213.873 L 27.882 214.800 29.153 214.800 C 29.902 214.800,30.518 214.559,30.650 214.213 C 31.086 213.077,30.586 212.956,29.241 213.873 M26.015 215.646 C 25.384 216.172,24.637 216.408,23.936 216.305 C 23.335 216.217,22.933 216.292,23.045 216.472 C 23.456 217.138,26.412 216.836,26.683 216.100 C 26.825 215.715,27.135 215.268,27.371 215.106 C 27.627 214.931,27.639 214.815,27.400 214.819 C 27.180 214.823,26.557 215.195,26.015 215.646 M32.082 217.729 C 31.597 217.945,31.200 218.365,31.200 218.661 C 31.200 218.958,30.795 219.207,30.300 219.215 C 29.745 219.224,28.978 219.785,28.300 220.679 L 27.200 222.129 27.232 230.964 C 27.261 238.789,27.328 239.663,27.814 238.600 C 28.212 237.731,28.369 235.437,28.382 230.287 C 28.406 220.707,29.308 219.096,35.167 218.159 C 36.065 218.015,36.800 217.732,36.800 217.529 C 36.800 217.059,33.246 217.209,32.082 217.729 M36.246 234.140 C 35.756 236.866,36.413 238.852,38.093 239.720 C 38.812 240.092,40.242 240.892,41.272 241.498 C 42.301 242.104,44.866 243.557,46.972 244.727 C 50.177 246.508,50.800 247.013,50.800 247.827 C 50.800 249.033,51.361 249.076,52.163 247.932 C 52.950 246.808,51.430 245.200,49.579 245.200 C 48.679 245.200,48.400 245.016,48.400 244.425 C 48.400 243.812,48.022 243.592,46.600 243.379 C 45.488 243.212,44.800 242.903,44.800 242.569 C 44.800 241.839,43.517 241.200,42.054 241.200 C 41.116 241.200,40.828 241.005,40.728 240.300 C 40.638 239.668,40.287 239.364,39.549 239.278 C 37.715 239.066,36.858 237.709,36.719 234.797 L 36.595 232.200 36.246 234.140 M68.664 233.378 C 68.542 233.695,67.716 234.173,66.828 234.439 C 65.940 234.705,64.912 235.255,64.544 235.661 C 64.177 236.068,63.679 236.401,63.438 236.402 C 63.197 236.403,62.190 236.942,61.200 237.600 L 59.400 238.797 60.892 238.798 C 62.151 238.800,62.424 238.644,62.636 237.800 C 62.813 237.094,63.159 236.800,63.813 236.800 C 64.322 236.800,65.273 236.350,65.927 235.800 C 66.672 235.173,67.616 234.798,68.458 234.794 C 69.381 234.790,69.627 234.678,69.247 234.438 C 68.813 234.163,68.877 234.029,69.547 233.817 C 70.016 233.668,70.400 233.378,70.400 233.173 C 70.400 232.570,68.906 232.746,68.664 233.378 M47.216 238.467 C 47.189 240.295,47.584 240.800,49.043 240.800 C 49.789 240.800,50.400 240.991,50.400 241.224 C 50.400 241.457,50.560 241.549,50.755 241.428 C 50.950 241.308,51.203 241.567,51.317 242.004 C 51.561 242.938,54.079 243.139,55.015 242.300 C 56.462 241.002,56.835 240.800,57.783 240.800 C 58.607 240.800,58.800 240.606,58.800 239.780 L 58.800 238.759 57.462 239.780 C 56.726 240.341,55.910 240.800,55.648 240.800 C 55.386 240.800,54.759 241.071,54.253 241.402 C 53.078 242.172,48.754 240.202,47.811 238.466 L 47.232 237.400 47.216 238.467 " stroke="none" fill="#74bcc4" fill-rule="evenodd"></path><path id="path4" d="M42.473 200.300 C 42.572 201.153,43.050 201.645,44.600 202.490 C 45.700 203.089,47.334 203.989,48.232 204.490 C 49.129 204.990,50.569 205.760,51.432 206.200 C 52.294 206.640,53.263 207.250,53.584 207.556 C 53.905 207.861,54.767 208.361,55.498 208.667 C 57.235 209.393,57.721 210.740,57.486 214.179 C 57.319 216.613,57.364 216.864,57.848 216.202 C 60.023 213.227,58.219 209.229,53.544 206.666 C 51.873 205.750,48.864 204.100,46.857 203.000 C 43.938 201.400,43.207 200.820,43.204 200.100 C 43.202 199.605,43.008 199.200,42.773 199.200 C 42.539 199.200,42.404 199.695,42.473 200.300 M37.589 208.293 C 37.045 208.675,36.060 209.277,35.400 209.631 C 34.740 209.985,32.130 211.472,29.600 212.935 C 25.917 215.065,24.663 215.596,23.313 215.598 C 21.980 215.600,21.673 215.726,21.854 216.198 C 21.981 216.526,22.290 216.667,22.542 216.510 C 22.794 216.353,23.415 216.278,23.922 216.344 C 24.429 216.409,25.329 216.137,25.922 215.738 C 26.515 215.340,27.630 214.694,28.400 214.304 C 29.170 213.914,30.520 213.158,31.400 212.624 C 32.280 212.090,33.720 211.260,34.600 210.780 C 35.480 210.300,36.470 209.675,36.800 209.391 C 38.756 207.708,42.382 207.992,44.170 209.967 C 44.585 210.425,45.166 210.800,45.462 210.800 C 45.769 210.800,46.000 211.229,46.000 211.800 C 46.000 212.350,46.180 212.800,46.400 212.800 C 47.757 212.800,46.591 210.871,44.285 209.300 C 41.485 207.392,39.335 207.069,37.589 208.293 M64.252 210.100 C 64.119 210.595,64.008 214.483,64.005 218.740 L 64.000 226.479 62.758 227.640 C 61.946 228.397,61.726 228.800,62.122 228.800 C 62.456 228.800,63.195 228.246,63.764 227.569 L 64.800 226.339 64.800 217.769 C 64.800 209.324,64.728 208.323,64.252 210.100 M34.000 218.374 C 28.876 219.938,28.400 220.942,28.400 230.179 C 28.400 235.712,28.263 237.525,27.750 238.809 C 27.032 240.603,27.281 241.374,28.191 240.171 C 28.657 239.555,28.777 237.743,28.787 231.149 C 28.798 224.314,28.903 222.813,29.400 222.400 C 29.730 222.126,30.000 221.668,30.000 221.382 C 30.000 221.096,30.618 220.658,31.374 220.409 C 32.130 220.159,32.811 219.767,32.887 219.538 C 32.964 219.309,33.875 219.026,34.913 218.909 C 35.951 218.792,36.800 218.539,36.800 218.348 C 36.800 217.934,35.398 217.947,34.000 218.374 M59.380 229.632 C 59.233 229.870,58.682 229.957,58.156 229.825 C 57.462 229.651,57.200 229.751,57.200 230.192 C 57.200 231.053,58.793 230.944,60.000 230.000 C 60.781 229.389,60.852 229.216,60.324 229.209 C 59.952 229.204,59.527 229.395,59.380 229.632 M35.978 232.041 C 35.711 232.541,35.471 234.171,35.446 235.663 C 35.387 239.134,35.564 239.333,41.400 242.401 C 42.280 242.864,43.810 243.775,44.800 244.426 C 45.790 245.076,47.275 245.904,48.100 246.265 C 49.221 246.756,49.600 247.159,49.600 247.861 C 49.600 248.429,49.837 248.800,50.200 248.800 C 52.288 248.800,50.704 246.801,46.972 244.727 C 44.866 243.557,42.301 242.104,41.272 241.498 C 40.242 240.892,38.812 240.092,38.093 239.720 C 36.285 238.786,35.681 236.733,36.319 233.690 C 36.837 231.221,36.720 230.655,35.978 232.041 M65.586 234.337 C 63.709 235.362,61.639 236.543,60.986 236.962 C 58.265 238.711,56.904 239.500,55.200 240.313 L 53.400 241.172 51.167 240.086 C 49.938 239.489,48.768 238.652,48.567 238.226 C 48.365 237.800,47.960 237.375,47.667 237.281 C 47.255 237.150,47.275 237.386,47.759 238.320 C 48.725 240.189,53.005 242.220,54.253 241.402 C 54.759 241.071,55.375 240.800,55.624 240.800 C 55.873 240.800,56.635 240.403,57.317 239.917 C 57.999 239.431,59.152 238.711,59.879 238.317 C 60.605 237.923,61.851 237.248,62.648 236.819 C 63.444 236.389,64.389 235.782,64.748 235.469 C 65.106 235.157,66.036 234.697,66.813 234.448 C 67.590 234.199,68.534 233.636,68.909 233.198 C 69.863 232.083,69.470 232.218,65.586 234.337 " stroke="none" fill="#789468" fill-rule="evenodd"></path></g></svg>